/* XPM */
static char *dummy[]={
"64 64 23 1",
"m c #000000",
"# c #00001f",
". c #00003f",
"h c #000043",
"g c #00004f",
"a c #00005b",
"j c #00005f",
"f c #000067",
"b c #000073",
"e c #00007f",
"c c #00008b",
"d c #00009b",
"k c #00009f",
"i c #0000a7",
"o c #0000b3",
"l c #0000bf",
"r c #0000cb",
"n c #0000d7",
"p c #0000df",
"s c #0000e3",
"q c #0000ff",
"u c #0007ff",
"t c #2323ff",
".#abccccdeddddddcccedeeeaffag#hbbdbbbbbbbbb...bbbbbbbbbb..bbbbb.",
"##cccidcicdeccicedbbbecefagaf#jkllllllkeeefm#jdddiiidddcbminiicm",
"#hicidccbfeciiocebgffbbeffafbmjpqldddclkefgm#joioiddorrlbminicem",
"#hddcdceccoccedecefcfbeeeeagfmjkoodebcfbffgm#jioidoliriobmddidfm",
"#gdiidcebcodcdceebcecebefeeegmjklodbbeffgjgm#joiiodiddodfmecdbfm",
"#fcdccececdccbbeifffciefeeeefmgdddddffcfajgm#joililslidcbmcebabm",
"#fcccedebiccbbbcdggfdieccbeefmhdedebebbffjgm#jioioosliocfmcbegfm",
"#fcicceddceeeefafaaccicldefafmjdeddbbfffaggm#jioooloococbmfabagm",
"#geeeecbideefbaffggiiedidcbfbmjeedfefbbfbgam#jililliodcicmmhhhhm",
"#hbceiliedcefdebffedicbeeicabmjieebebeaggggm#jiodlodicedbm#kiigm",
"#hbbcioiicdefbbffafiiicbecgbfmgieefebabegggm#jioddicdoddbmdqliem",
"##beciciedbbfffafggcdefbibaffmgicbbaeafgeagm#jioocdelllcamcqicam",
"##abdcdcccdbfbfgfgfecdkcbabfgmgbefefagafeagm#jididdccddbgmcriegm",
"##gabdbbcdebfaagggacdeebffffgmgefafhagfggggm#jidcdeccdeggmekbafm",
"##.hffffffffghagfagffffffffg.m..gh..a......m#joioccccfabgmhbocgm",
"#mmmmmmmmmmm#######mmmmmmmmmmmmmmmmmmmmmmmmm#joioecbebgbgmmmmmmm",
"bbbbcccccccddcam#############################jioodcebebbgmheeeee",
"iidddooippkbbebm##gggggggggggggg####fcdoode.#jiooecefbbagmeklnld",
"oooododdllkdbffm#abcccccdeeeaffag##fcbfbbcbamjiricccbbfgamdkpqpi",
"riiroioocckebffm#bccidccbecefaggf##bcagbbafbmjiloddcebgaamdkptpl",
"riddlocdckdejefm#bcidiccfbbebfgfbm#eeagaagfamjoiicecceaegmklrpli",
"rsidooddodcbfabm#bdicccefbeeebagfm#fbbaagaaamjiddcdcebgggmolllld",
"rldiokoikdebafbm#biiclcicebefccbgm#.fbbbeffamjiddcddbagggmiokklk",
"oliiooidcdojdffm#bddcedeciefeccbfm##mmmmmmmmmjiibdebffgagmioollo",
"roddkooodoebggbm#bdcbeecdieccbeefmadoooookem#jideebebfabgmdkllkl",
"lodcdoiddddbggfm#biccddicicldefafmdlplldbebh#jiidcbbbaaagmdlolri",
"icoiddddccagagbm#beecbcliedidcbfbmdilldeefah#jocddeffafaamdllord",
"oiioccbecbeagaf##bbiciidicbeeicabmdiecceeffh#jidddcbbaafgmelppoi",
"doiiccffceffafbm#bbeiooiiicbecgffmcieokkbefh#jodcccbfbaaamelnnld",
"oeececebefbeagfm#bedeiocdefbibafamdlkleeaaah#jodecbbbbgggmelkoii",
"debfficcdebfffgm#abbidcecdkcbabfgmdddckeafah#jooeccbfbfggmeklikd",
"eccedecoeccedefm#gabdbbcdeebbffagmdcckdebbgh#joidebebffggmekllid",
"kebkededcidbebfm##hgffffffffffag.mdcdodbfggh#jodcebefebagmeklkde",
"fefkciceciicfafm###mmmmmmmmmmmmmmmdcidejaggh#jodcbfffeaggmekkkde",
"fcccaiiecicbbfbm##.eeeeeeffaajaj##ceccbjgahh#jodcbfefffggmfkkicc",
"cfcceodccfcceabm##akkkioockebcebh#cbeeejgahh#jodfefbfbfagmfkedce",
"eeccgiideeccgbfm##aekcikkkccbeefh#cebafgfghh#jodcbgbfffagmfceeee",
"eccfaccieccfaffm##akkcckceefjbfhh#ckcbaggggh#joeeffcbggfgmfecbbe",
"ebbabdcdebbabfgm##akfcfkcffgffbhh#eceejgfaah#joebfeegabagmfdcdeb",
"bcfbfcdebcfbfggm##akfcccaefhhfjgh#cdeeefaagh#joebfgggfebgmhcdebc",
"hhhhhhhhhhhhh.#m##afffffffffffffh#eeeeaaahah#jobjj..ggbjgm#hhhhh",
"###################mmmmmmmmmmmmmm#cddaajghah#jia......a.gm#.kf.#",
"##.dlrrrnnrrrooooiiiddccf#########cebeagghgh#hbhh....g.ggm#fkej#",
"##dnssnsllooiiioddiideefa.#geeef##jbbegbhhgh##mhhhhhhhhhmm#.gjf#",
"##dssnrlioiiciiicddceecba.#glkdc.#.ajgjhgggm####################",
"##ossnnlodidoloidcccecbfa.#gkide.#.aggaahaam##errnnnnnnnnnoiiib#",
"##onrnriididorliddcdcbfag.#akidf.##mmmmmmmmm##roorrrlliiiiiiodem",
"##onriloididdoodddeccbffg.#akkfa.#fliidcebef##rlppllicccecciijem",
"##onrroidddikiiliiceebbbg.#geeea.#riidccbbfag#noplpldlbcbeecfjbm",
"##ooiioooidccdlolidceefag.#fggggh#olkcdcbbaag#npplldqlecbekbbeam",
"##odooooooceeddoodeebffbh.##....m#cefecccaagg#noplolldebccbdbbgm",
"##oooolunoccbeddioeebfafh.########hhhjbebhhh##nilolpdibeebccjagm",
"##ooolnrnrdcceccccebfagah.#accdddddddccdeeff##nilkiloeeceecbaagm",
"##oiornrnoideebfffaagggah.#clooiddiideebbfag##nllcklekeebecaahhm",
"##ooollrliidefaaaagaafagh.#coinicdrriebfffa.##nodllefeeffbbfajhm",
"##loiioocdicecbffgaaaaaah.#doinicciiddcbbaa.##niilddiffffjagjh.m",
"##looiidcccddecgfgbgggggh.#didrlibeceeeeffg.##nioddkkffeag.hghhm",
"##looccecccdcefagbbfffga..#cdddieeefebaaeggh##ndicdlkebfa.gjghhm",
"##ldcceeebbbccffabeffafg..#cidcdceebcbfhffg.##nckkdkebfbajbagjgm",
"##idcdebbgaffbggafffaaag..#bddcccefbbfbfffah##robcceeef.ggafjjgm",
"##ddeebeahhafafafffaaggg..#eddeeaffabgffag..##dbcceebgajaggag..m",
"##dccecffafffaaaaaaaagg...#edcecfbfafaagg...##debeeffaaagggj.h.#",
"..ffffffffffffffffffffffff.ffffffffffffffaaa..bbbbbjjajjjjj....#",
"aaaaaaaaaaaaaaaaaaaaaaaaaagaaaaaaaaaaaaaaaaaaaaaaaaaaaaaaaaaaaaa"};
