/* XPM */
static char *dummy[]={
"64 64 30 1",
"w c #1f1f1f",
"g c #232323",
"m c #2b230f",
"f c #2f2f2f",
"r c #333333",
"x c #373737",
"k c #3b2f17",
"e c #3b3b3b",
"c c #43331b",
"l c #434343",
"# c #4b3b1b",
"d c #4b4b4b",
"a c #573f1f",
"h c #575757",
"y c #5b5b5b",
"b c #5f4323",
"i c #676767",
"q c #6f4b27",
"j c #737373",
"n c #774f2b",
". c #7f7f7f",
"s c #83532f",
"p c #8b5b33",
"o c #8f8f8f",
"v c #935f37",
"z c #9b9b9b",
"u c #9f633b",
"A c #a3673f",
"t c #ab6b43",
"B c #ababab",
"..#abbaaaaababb#bbbbbbacddba##########cdeffffgh.diihdddddddddi..",
".jc#bbaaaaababbcbbbb#ccdhba###cc#######chefffghdiihdddddddddddi.",
"jje#bbabaabbabbcab#cccdiab###accc######ccheffghdihdddddddddddddi",
"hjhc#babaabbab#c##ccdh.aaba##a#c#c#a###cakhefghdhddddddddddddddd",
"dhje#babaabba#ckkcdhjja##ba##b#########c##ihefhldddddddddddddddd",
"ddhhc#bbaabbackkediiiha##aa#aba####c###c#baiihihdddddddddddddddd",
"dddde#abbb##ckcdhhiihc###aa##baa##mm###k#cnaiiiilddddddddddddddd",
"dddlhc####ckkehihihhhccc#aa#aaaa##k###ck#cbkij.jhlddddddddhddddd",
"dddeiecccckcdiihjihhhdkkcc###aaa##ab##kc#c#kijo.idldddddddhdlddd",
"dddeihekkcdhjidihhllhdekkkc##aa#k####ckc#ckkiij.jhlldddddhhdlddd",
"dddeijiddhi.jdhdddlllddhekkcc#a######kc##ckeihpnhiledhddhhddlddd",
"dddei.jjjj.jidhldlllllledhekkc######ckc##kkdhqbb#hhledhhhhdllddd",
"dddei.ooo.jidddldllllllredhekkc####cmkkmbkkhnbb###iledhhhddldddd",
"ddlei.oo.jidddlldllllllreldhdekkckmmkckbcmehqbbcabhhlldhhddldddd",
"ddlei...jjhddllldllllllrelldhhekmmmcc##ckkhqbb##bbchleddddlldddd",
"dlehi..jiihddllldllllllrelllliihekmkcccckkd#bbcabbchhleddllldddd",
"ledijha#dihrellldllllllrellleri.idekmkkkmddc##cabbchilfelrlddddd",
"ediidbqbcdidrelldllllllrelllfei.nnidekmmki.idcccccchjhefrelddddl",
"dihdbb###cdilreldllllllrellerdinppnhhdddh.oojideedhj.ierelddddel",
"jhdbb#####cdhrredllllllrellrehnpqqqpnnij..oo.jhdeed.ojlrrdddlelh",
"hdbb######ccddrelllllllrelerdhsqbbbtuvnnij..jhhefffd.jherfleflh.",
"dbb########ccddrellllllrelfehnsbbqppqqqnpqijieerrfffdijhefgflh.i",
"bb#######c#ccchlrelllllreerdhsqqnppbbbbvnsphieffrffffdjjhdddh.ib",
"b########c#ccceherellllrffrhnpnpspqbbbbbbqnaheffrrffgfdjjiii.ibb",
"#####ccc###c#ccdderelllrgfehnssbnqbqbbbc#bbqdeffrfffgffd...jibqa",
"#####cca###c#cccidrrlllrgrdnnqbbnqbbbbcaabbbeefffrffgffgi.jibqa#",
"#aa###aa#c#c#ccchierellrgrhnqbbqnbacab#avbbbeeffffffwffgdjibba##",
"#aa######c#c#cccdjhereergenqbbbqqb##abbqbbbaeefffffgwfggdibba##a",
"#######a#c#c#cckej.herrgrhnqbbqqbbbanabbbbbaeefffffwwwgeibba#ab#",
"#########c#ccckehoo.hxxednqbbbnqbbbbpbbaabb#eeffffgwgfdibqa###kc",
"########ckcckkeh.oo..ihhhnqbbqnqbbbnuabbabb#eeffgggfh.ibqa###ccc",
"##c#####ckkkkeiiyyyj..iiqqbbbqnbbbaqbaababb#efgggfdjo.bqa#aa##a#",
"###b###ckkkkdiyj.jiiy..insbbbqnbbbbbaaabbbacefgfhi.oz.bb##ab####",
"######cckkkdijyddddhhh..c#qbbqqba#aqbbabba#kdhi..oozo.b###aqa###",
"######ckkehiiddddddddhh.hkkqqnqbbqbbaa##cck#hiiipsio..#c##abk###",
"####cckkhjiyddddddddddhdyhm#qnbaaa#ccccccediipspsnnj.jdkc#a#a###",
"###ckkkhjiyddddddddddddddyhc#q#cckkcceddhiipupnnnqqijjidkc##c###",
"##ckkehjihddddrrddddddddddyhecccceedhiipspAvnnnnqqqhjjiidkk#####",
"#ckedi.ihdddddllddddddddddddhdeddii.isupsqqqnqnqqqahijiiihkkkc##",
"kcdhj.ihddddddddddddddddddddd....oo.upqqqnnqqqnqqqahihddhihdkmmm",
"edij..hdddddddddddddddldddddddoooo.qvqnssnqqc#qnqaehhxfffdhiidde",
"hi...dldddddddddddddddrldddddddo.jjbsqnnnqnq#vnnqaddfxrrefediiih",
"j.oz.ellddddddddddddddddddldddlljjidbnqqnqqqnqqqaedfxrrrfrdffehi",
"fdozoheellddddddddddddddddldddlldiihabnqnqnqqqqa#dfxrrrrfrffxfff",
"fgioziheeellddddddddddddlldddlllliihdabqqnnqqqa#eexrrrrrrfgfrfff",
"fgd.o.ihheeelldddddddlllldddlllllhdldd#bqnqqba#edgfrrfrrrfgfrfff",
"ggh....jihheeelllllllllddddllldedhlllddcbbba#cehigfrrrrrrfgfrfff",
"gfi....jiiihheeeeeeeelllllllddledddxeldac##c#di.jfffrrfrfggffffg",
"fi...jiqqqqqqhhefeeeeeeellddddeeherffeed#c#ehj..jdggfffggwwggggg",
"j..jiqqnnqqnnqqhhffflldddddddleddrrfffxehdhijiiijieggggwgfffffeh",
".jiqqnqqbbbqqnnnqhhefellddddleehefffffffj.jijBo.jiydxrxlhjjjjjj.",
"jiqqqbbbbbbbbqqsnnqhheeellllleddlffffffe.iijooo.jjjjiyijj.ooooo.",
"hqqbbbbbabbabbbqnssnqhheeeeeeehllfffffeihiiii.ihhhhhhyiiijij.oz.",
"bbbbbbbbabbbbbbbbqnspnqhhdeeedderrfffeihiyhdiidddddddddhi.iejooj",
"babbbbbbabbbbbbbnsssssnqqdiiiidfrrffeihiyhdhidddddddddddhidejo.i",
"bbbbbbbaabbbbbnnsqbbabbqqnqd..hfffgdjhiyhddhhddddhdddddddilej.jh",
"bbaaabbaabbbbnqqbbbaabbbbbqa#ijhhhijyjydddhhhddddddhdddddheei.iq",
"bbaaabbaaabbqqqbbbaaababbbb#aqai.jjyjyddddhhdddddddhddddddeeijqb",
"bbbaabbaabbbqqbbbbaaabababbcaba#h.diihddddhhdddddddddhdddlediiqb",
"bbbaabbabbbqqbbabbaaabaaaabcaba#dihdyhdddhhddddddddddddddlehiqbb",
"bbbaabbabbbqbbbabba##abaaabcaba#diilhhdddhhdddddehhddddddleiiqbb",
"bbbaabbbabqqbbbabbcanqqaaabcaba#dijdhhdddhhddddddhhddddddeeiqqbb",
"bbbaabbaabqqbbbabbbnnbbaabbcaba#di.hhhdddhdddddddhhdddddleeiqbbb",
"bbbbabaabbqbbbbbbbbbbbabbbbcaba#di.ihhdddhddddddddddddddleeqqbbb"};
