/* XPM */
static char *dummy[]={
"64 64 11 1",
"i c #333333",
"h c #373737",
"f c #3b3b3b",
"e c #434343",
". c #4b4b4b",
"# c #575757",
"a c #5b5b5b",
"b c #676767",
"c c #737373",
"d c #7f7f7f",
"g c #8f8f8f",
".##abcddcbccbcccbaab###.ee.###..ffeeee.#bbcddcb#..###.eff.##abbc",
".abcbcccbacabbcdca..aa..ee.#######...###aabccba.ef.#a#.f.##abbcd",
".bcdcbccccdcaabca#..aa.e.e.##bccccbbaa##.#a##ba...#aba#f.#abbccd",
"abcc#aabcddca#ab#a#..eeeee.#bcddddcbbaa#..#..#ba##accb..#abbbbcc",
"aaba###accabcaba###....e.e.bcdddddcbbbaa#eee.#b##abba#.#abbccc#b",
"#aa##.bbabbbcbb#..#.e..fee#bdddccdcbcdba#efe#a#..###.fbabbccccca",
"#aaa#bcbaaccca#.e.#.eeeee#bcdcdccdbaccaa..ee.##ee.efff#bbcddcbca",
"..#aa###aaaa###..a#.e.ff.#bccdcddcbaa##a....eeeffeffe.abbcgdc..a",
"#ee#a#.aa#aa##.####.eefe##bccccccbab#..#..#..eeffffe.#bbcbcc#..b",
"#e..#e.a#a##a.##.......f.##ccbbbaa.b#eee.......eeee.#abcbcbcbcbb",
"#.....ee#a##a....e.#f##.#.##..c#ee.baehhee#..#.....##bbbcaaaaabb",
"###bcb.e...e..eeee#.##abbcbba#..eee...hiee##bcb####.#bbaa####aac",
"e#bcdd.eee..ee.ee.###abcdddcba#......eeee.#bcgdbbb###bba##...#ab",
"e#bcd#.e..e.eeee.##abbcccddccba#######...##bcdcbcdb#baaa#.ee.#ab",
"f##a#..#ee.eee.###abdddcccdcccccbbaaaa#####bb###ddb.b##a..ef.#bb",
"f##....#.eeee.###abcgggggddgddddcccbcba####bb..#bcbe####....#a#b",
"...#####.#######abcdgggdccdddddb#bccccba#####..#b##e#b..#..#aaa#",
"a#bc.##...bbba.#bccdggggccddccb##bcccccbaa#e.##bb#.e##..####aa..",
"bbbccb##.acccb#abddcggggddggdcccbcabbdccba#.e.####e.##....####ee",
"bbcddca#abcbba#bcggdddgggggddddcccaabccccba#.eeeeee.#...eee...ef",
"bbdccdb#bccbaa#cdggdggggcccdcdggdcaabcddccca##.eee..#...effe.eef",
"bcdcdb#.abcba##cccgdgggdcccdcdgbbbabbcddbccaaa#......#...ffffeee",
"dccdca.e#aaa##acbbcddggddccdccdbbccbccccbbbbbaa.ee.###....ffffff",
"dccba.ee##.###acbbbddddddddcccccccbbcccbbcbaaba#ee#aaaa###.effff",
"b####.ee.##.#abb#aabcccddgdcbaabccbababbccca#..###aabbbba###.eff",
"....eee.##.f.abbaabccbccddcba#dddbbbababcca#...##aabbcbcbbba##..",
"#.eeee.####.#abbabddcbbcccddc#ddddcabaabbca..ee.aabbcbgdcbcbca##",
"########bbbb##aba#bdcbacbbddcabdddcba##aaba.eef.abcdbcddc..cbcaa",
"#.####bbcddbb###ba#bba#cbbaaaabccccba##abba#eff.abdgcbccb..aabbb",
"b##.#bbbcdd...##aaa####aba####abccbb#...aa#.e..#abcdbabccaa#.#ab",
"bb###bddbb#.#aa####aa#####...#ca##bb#.ee#.ee...aacba##bcba##..ab",
"b.#bb#db.##bbbbaaabccbaa##...###.##b.eff#.ef###abbba##abca#..#ab",
"bba#.##abbbcccbbbbcdccbba#####bbbb##eee...eee##aababba##bbbccbb#",
"###..##abccdddcbbbccccbcbba##bccccb....########aaaabca#bccccbcba",
"#....#abccdggcccccbbcccbcbca#cddddb.####bbbbbb#.#aaababcbddccbaa",
"#..e#abbcddgcbbddcbbcbbaacba#cdccb#e##cccccbbbbbb###aabccdddgdb#",
".eef#bbbccddbccgdcccbba##aab#ccdb#.e#ccccccccb#bb#.###ccbc##de.#",
".ef#abccbcdccbcddcccca##..#a#bcb#.efbcddbbcbcbb###..#.cdcbab#.#.",
"####acddbcccbcccbcdcba##...##e##efffbcddbbbcbcbb#.ee##bcbbdbbb.e",
"ba##bcddbbcbcbbbbdgdbbba#...#eefff#bbcccbcccbbcb.eff.#.eaab#bd.f",
"cb.#bbccbaaaba##bcdca#abaa....####bbbccccddcbccb.effe#.fe.#..#ef",
"da.#bbbbba##a#..#abb#.#acca..e..#bccccbccdddcbbb#.eef##.effee.ff",
"c#.#bbbba##.##....ab##abccb..ee#bbccdddccbddc######.f..##.fffff.",
".#.#abbba#..#a#.##abbaabbb#..ff#bbccddddcbcccccb#..ef#..######bc",
"f..##abba#e.#bba.e#c##..###..ff##bbccdddcbbbbcccbefff##bcccccdcd",
"..####..#ee.abba..#bb....#..eef##.bbbbddcccbbbbcbeffe##cdcdddddc",
"######..#ff##bb###acb...#...eee..#..bbbcbccb##bbb#e..#cdcggdddcd",
"abba#.e.effe...#..#.#.ee...efff#####...bbcc##....e###bccdgccddcc",
"ddbb#.eefffeee.ee.#..eeee.efffe##..##..#ee##..#..#abcccdddcddddd",
"ccbb.#eeeeeeeeeee#..eeffffffef.#####.#.eff....eee#abccddgdddccdc",
"bba..f#..efffffee...ffffffff..#bbccba##fffee##effabbcccddddccccd",
"a##a.f###..efffeee.fffeee..###bcccccdb#.fffe..effabbcdcdcdcdcbbc",
"###.f.#..#...fffeeffff.#######bdddcbbdb##.fe.eee#abcccdccccccbbc",
"ba.ff..ee..##.fffffff.##abbbbbdccddbb#.b###eeee###accdcdcbbccccb",
"#.ffe#.ee..###.ffffe###abbcdddcbbcdccb#.#.######.#acccdcbbabccba",
"#efe.##...##aa#.....##abbbdgddcbbdddc#...###bb#.###bccccba#aabb#",
".fe.#aaaa###aabdcb#.e#bbccdddcdccdccd.ee.#.bcccb..##bccbbbaa#aa.",
"fe.#abbbbaa###bcc##.e#bcdddccdcdddcbc.eff#..cbb#b..#bb#baabbaa##",
"..abbbbbbbbba##b.##.eabcdgcbcdddddddc#eff..cccc#c#.##bbb#aa#bba.",
"#a##bcccbbccbb##eeee#bbbccbbbcdddcddcb.ee.bbcc....ee##aa###..ba.",
"ab##bcdcccdcbbbb#ee#abcbbba##bbccbcc.effe..#bb.e.ffe##.####..a#f",
"bbcbbbbdddcdcabbb###abbba#a##bb#.#bb.eff##.b..#..ff####.#.###.#e",
"bcbbaccdgdcdcbbbbb##abb##..#a...ee.##.ee##....#..ee#..##.....eef",
"bcbccc##ccdcbaaccbb##aa#...a.e#.ffe..e..###.ee.e..##..###...efee"};
