/* XPM */
static char *dummy[]={
"64 64 21 1",
"b c #232323",
". c #2f2f2f",
"o c #333333",
"r c #373737",
"f c #3b3b3b",
"p c #434343",
"a c #4b4b4b",
"# c #575757",
"m c #5b5b5b",
"l c #676767",
"n c #737373",
"j c #7f7f7f",
"k c #8f8f8f",
"e c #9b9b9b",
"h c #ababab",
"i c #b7b7b7",
"s c #bbbbbb",
"c c #c3c3c3",
"g c #d3d3d3",
"d c #dfdfdf",
"q c #efefef",
"................................................................",
"##########abcdddddddddddddebff.eggggggcch#.bfaaaaaaaaa##########",
"##########acgihhehhhheieejkbf.gekekkeekeelfbfmjjjjjjnl#aaaaaaaaa",
"jjjjjjj#a#acghekhkekejhheknbfkgeeekekkekjlfbfnddddddcihheeeejjjj",
"ccccihejf#acghheeehjkkkkke#bfkgkkeeeekkkj#fbfnddggggdddddggggggg",
"kkeeehknfaacchkhejhkkhekkj#bonekeekkeehkj#fbfndihhhehhhkkkkhkkee",
"hhjkkkknfpacghkheehjekjjkj#bo#jkkeekkekejafbfndieeekeeekkeheheeh",
"ehkejen#boacgkehejjjkhkjke#boa#jekeekkek#ff.fndihheekheehkkekkke",
"jjjjkklab.acgheeehkjkkekke#bbafa#llllllfff..fndiheeehheekeekkkkk",
"kkkekk#ab.ahghekhjekkkeekk#.boafaaaaaaff.bb.p#cieekekekkkejeekke",
"nnnn#ap.b.akdhkheekeejkkkh#.boafbbbbbbbbbbbfaaiieekkkkkkkkjjkkjk",
"###aaobbb.pndhekkkhkkjehek#fbofffbbbbbbbbbbfaaeejjjjnl#####llaa#",
"..bbbb..ofaachkkkeeiheehek#fboofkqqdcccikj#baa#nll###afffff.....",
"........ofaaickheekkkekeke#fb.ojqdgciiehknabffpppppffrr.bbbbbbbb",
"ffffffffffaaechkhehhkhhkke#fb.oeqchihiiejjabf..........fffffffff",
"#pffffffffaanckhkheejjkkje#ab.oeqhkhceeeejabfaaaaappppppaaaaaaaa",
"eeekkjlllfoaaieheeekkjjkkk#abbokqhkkekeekjabf#hhn#a##eeeeeeeeeee",
"ddddddiejf.fakeeckkjjjjjkkaabbojgheekeejnjabfhiieaaacddddddddddd",
"iiihhhkjnfbf#nkeknjjjjjjjlaabbof#khkjnjjjjabfcihkaaadcihhhihiiii",
"kekkkhhjnfbf#aennnlnl#aaaa#fbbobb#aa#####afbfdiekfaadheehehhekee",
"khkehkhjlfbf#afffffaaaaaaf.bbbo..b.........bfdeek.aagheeekhhhkhk",
"eheeeeijlfbf#a....bbbbbbbbbbbb.............padehk.aacehhhkekkehe",
"khheheej#fbo##afbbbbbbbbofffffppaaaaallla.ff#deej.aacekheekkhkhi",
"hheikkhj#fbfpkiddgienpffalkehhiccdccccielofasceen.aahhkekkeehhhk",
"khkehkkj#fbfhccieehee#paldqghhhhhheeheen#bf#deeenbaakehekekhhkhk",
"jkkkkkklpfbfdiiihheeh##ajdchehhehheeecenabflqehenbaaljjjjjjjjjkk",
"a##mll#pffbfdiieeekhhfaajchhkhkkkkkkkehnabflqeeenb#a.faaaaaaaa##",
"aaafffoo.b.fdehkkkhhcfpajcekkkhekkkekkknfbflqehknb##a.bbbbbb.rfa",
"bbbbbb...fpadeeekehhiffajgekkkkkhekhhkknfbflqeehnb###a......bbbb",
"aaa##lllll#bdjhkhkeeeprpjghekkkkkhkhkjhn.bflqeehnb#######aafffff",
"lkidddgggh#bdkkhhekeep.pngeehkkjkjkkkekn.bfldeehnb#alehkl#aaaaa#",
"lhkhkehhee#bqkhkheece#rpnchhkhkkkkjjekkn.bfldeeenb#kdccigdddhnaa",
"lckhkkeeeh#bqkhjeekhe#foaiiekkejkhkhjjjn.bfldkhknbagccchhhhkkjaa",
"lckejkhekh#bqkkkheheemfbaecehhhkkjkkkhkn.balgheknbadciieeekjjlaa",
"lckkkkkkek#bdjhhheiekmrbakgehehkehkjkkenbbalcekk#baghieeekkjnlaf",
"lchkekjkek#bdehhheehk#rbplghekkhheehekem.balhkjl.faeeeheekjjllaf",
"lcekjkhjej#bchekkkkkk#rbp#hhhkekhkekkmpo.bafnl#..aalkeheekjjllaf",
"lchkkhejjn#bihhhhkkke#rbfakihekjnappam#fbbaf.bbfaaaflljjnlll##ff",
"lcehekkikj#beheeikehe#rbfafjenmppooobbbbb.aaaa#####f.b.......b.f",
"lcekkkkeej#bjieehkkeh#rb.pobbffbbbbbbbbbbopa#aaaaaaaaaffffffffff",
"lckhehhkee#b#ieheeekh#rb.papo....pppppppaaa###################fa",
"lckhheehkj#baqhheekhh#fb.fa#################eiicgggggggggggchjfa",
"lckkekekkna.aqeekkhhk#fb.ofjqdddddddddddddddddddddddddddddgiel.a",
"lcekkkeek#a.aqhhkehke#fbb.fcdgggggggggggggcciiiiiiciihciihihjlff",
"likhkjejj#bfadheeehki#fbb.fcdihiichihciihehhiihheeehkkkehhekjlff",
"aeekkjjjj#bfagekkjkkk#fbb.figiehhhhiiihehihceikhhkhkheekeihkjlf.",
"aeejjjkkl..faihkeeekk#fbb.fhgcecheheehkkhkkkhekekeikhkkhekjkjla.",
"anjlll##...faehjjkkkj#fbb..ecggehkechkkeikkhekkhekeekehhkkjjjla.",
"apffoooo..opa#llllll##fbbb.aehehekkkkekkeekkkeeekkkjkkekjjjjjla.",
"##apf.....opfffffffffffbbb.fneheeekhekekkjekekkekkjkkejjkkjkjla.",
"aaffappoo.fpf.bbbbbbbbbbbb.aa#nnnnnnnkhhekjkkkkkjjkkkkjjkkjjjlf.",
"afkeiikn#afff.............f#affffffallnjkjjjjjjjjjjjnnjkkkkjl#.f",
"fjgcchcgcen#af...fffffffffa#aaff....fa#lnnnnnnnnnnnnnnnnnnllla.f",
"aechihhhiggcen############ll##aaafff..aaaaaaaaaaaaaaaaaaaaaff.ff",
"aeikkkekehhgdgcccccccccsiheeeeeklfafff.........o.............ffa",
"aeihhhkkkkkehhekhiihheeeiicdddgcef.#affffffffffffffffffffffffaaa",
"aeihkhehhhkeeheihhhiheeekkkekekjcfb#alddcelapaaaapaaaaaaaaaaa###",
"aeihehkeehkkeehkkeeeeeeeehkhhkkkkfbaajhhcddcj##aahddddddddddaaa#",
"ankeheceeheeekecceeheeekekekheekjfbfakiiihhhil#aicihiiheehehh#a#",
"afnlnnnnnnnlnllnlllljnjlf#ll#l###fb.akhiiiihejajghhehhheehhhejf#",
"aff.................bbbbbbbbbbbbbbb.a#jjjjjjjlaehkkeekeeeeekkj.#",
"#afffooooooooooo....................fffa##lla.fjjjjjjjjjjjjjjl.#",
"####apppaaaafffffffffffffffffffffffffffffffffff#f.............f#",
"ffffffffffffffffffffffffffffffffffffffffffffffffffffffffffffffff"};
