/* XPM */
static char *dummy[]={
"64 64 23 1",
"o c #1f0000",
"p c #1f1f1f",
"j c #232323",
"m c #2b0000",
". c #2f2f2f",
"i c #370000",
"d c #373737",
"a c #3b3b3b",
"h c #430000",
"c c #434343",
"g c #4b0000",
"b c #4b4b4b",
"f c #570000",
"# c #575757",
"s c #5b5b5b",
"e c #630000",
"n c #676767",
"q c #737373",
"t c #770000",
"r c #7f7f7f",
"l c #830000",
"u c #8f0000",
"k c #9b0000",
"................................................................",
"#a#bbbbb#bbbbbb#babbbbbbb######bbbbbbbccbbbbbbbbbccaddab##bbbbba",
"efeegggefhhhebb#befggggefeefeghffggffbbbbefghhhhhgggghhghhgfeefe",
"eeeeeefeeigfhjb#kefheefeeeeeehffhhegh.b#kefheefeeeeeeefhffeeeeee",
"heifhhfheihfijb#lfefhhfheifeeeffmihfh.b#lfefhhfheifeefeeffhghheh",
"efeehhhefiiiijbnlefhhhhefeefehiffhhgh.b#lefhhhhefeefeeehifhfeefg",
"hhiieefhheffijbnlefheefhhiieehiehffgh.b#lefheefhhiieefehieehghfh",
"fhfihhffhfmiijc#lfefhhffhfifehieefegh.bnlfefhhffhfifeefhiehhghfh",
"ghefhhhghffhijc#lefhhhhghefeehfhmgfgh.bnlefhhhhghefeefehfhhhghfh",
"hhhhhhhhgimiojabehhhhhhhhhhhhhhhhhhhh.bnehhhhhhhhhhhhhhhhhhommom",
"jjjjjjjjjjpjj.abbba.jjjjjjjjjjjjjjjj..bqajjjjjjjjjjjjjjjjjjjjjjj",
"#caaaccccaddddcc#qq#cccaaabbbbaaaccbbbnr#bcaabsn#bbbbca..ab#bb##",
"eeefheghgghhhhhebnnbefggggefeeeteefeghhhhheghgghhhhhebc.befgggge",
"eeiffghihhigigfha#nkefheefeeeeegttfghigigfghihhigigfhabakefheefe",
"feihfhffffheihfijbslfefhhfheifegeeggffeihfhffffheihfijbalfefhhfh",
"eeefiihfhhhhiiiijcslefhhhhefeeegeefghiiiiiihfhhihiiiijcalefhhhhe",
"ifehfieffgmeeffijc#lefheefhhiiiiiigfgfghifieffiihhifijablefheefh",
"ifefimefeghffmiijc#lfefhhffhfieigeffgghhmimefeiimmiiija#lfefhhff",
"fefehgefegffffhijcslefhhhhghefefefefghhhfhgefeimmhihijcnlefhhhhg",
"hhhhimgmmommimiojb#ehhhhhhhggfffggghhmmimimgmmommimiojbneffgfhhh",
"...j...jjj...jjjabnajjjjjjjjjjjjjjjjjjjjjjjjjjjjjjjjj.bnb.jjjjjj",
"#bcddcbacaccadddc#qbbbcacacacnqn#b#bca.accbb#caacbbb#bnrn#bc#bbb",
"##efggggefeeeeefheghgghhhhheb#n#efggggefeeetfeghhhhheghgghhhhheb",
"#kefheefeeeeeeiffghihhigigfhab#kefheefeeeeegfghigthhghihhigigfh.",
"alfefhhfheiffeihfhffffheihfijbslfefhhfheifegggffeieihffffheihfij",
"blefhhhhefeeeeefiihfhhhhiiiijbnlefhhhhefeeegfghiiiiiihfhhhhiiiij",
"blefheefhhiiifehfieffgmeeffijbslefheefhhiiiigfgfghifieffgmeeffij",
"#lfefhhffhfiifefimefeghffmiijb#lfefhhffhfieiffgghhmimeeeghffmiij",
"blefhhhhgheffefehgefegffffhijaslefhhhhghefefefghhhfhgeeegmfffhij",
"behhhhhhhhhhhhhhimgmmommimiojabehhhffffffhhohhimmimimgmmommimioj",
"bbjjjjjjjjjjjjjjjjjjjjjjjjjjjab..jjjjjjjjjjjjjjjjjjjjjjjjjjjjjjj",
"###cccaaaabnqq##bbbccb#cba#aa#nbbb#b#b#b#qq#cb##bbcacbba#abbbbb#",
"eghgghhhhhebn##efggggefeeeefheghgghhhhheb#nbteeffgefeeeeeffeeegh",
"ghihhigigfh.#bkefheefeeeeeiffghihhigigfhab#klteeefeeeeeiefeeefhf",
"hffffheihfi.#blfefhhfheifeihfhffgfheihfijb#llefhhfheifeieeeefeef",
"ihfhhhhiiii.bblefhhhhefeeeefiihfhhhhiiiijb#ueffhhhgfeeeeeffeeehi",
"ieffgmeeffi.bblefheefhhiifehfieefgmeeffijb#uefheefhhiifeggeefehi",
"mefeghffmii.bblfefhhffhfifefimefeghffmiijb#lfefhhffhfifefgfeefhi",
"gefegffffhi.bblefhhhhghefefehgefegffffhijc#lefhhhhghefeffeeefehf",
"mgmmommimio.bbehhhhhhhhhhhhhimgmmommimiojc#ehhhhhhhhhhhhhhhhhhhh",
"............b#ajjjjjjjjjjjjjjjjjjjjjjjjj.cna.jjjjjjjjjjjjjjjjjjj",
"#b#abaabbaaa#nbaaabbbbb##bbaaab##nq#caaacnq#baabbsn#bbaabbbb#aba",
"baefggggefeeeefhhhhhffefgghhhhheas#aefggggefeeeefeffeeeghffggffb",
"bkefheefeeeeeiffgighgfeehhigigfh.bbkffheefeeeeeifefeeefhffhheeha",
"blfefhhfheifeihfeihhgffgffheihfi.cbleefghfheifeiheeeefeeffmiffh.",
"blefhhhhefeeeefiiiiigfefhhhhiiiijaclefhgggefeeeefeffeeehiffhffhj",
"alefheefhhiifehfehiffffhfgmeeffijaclefhggghhiifehggeefehiehfffhj",
"#lfefhhffhfifefiffmihffheghffmiijaclfefhggfhfifeffgfeefhieefefhj",
"alefhhhhghefefehihhhhefhegffffhijaclefhhghghefefefeeefehfhmgfghj",
"behhhhhhhhhhhhhihhhhhgiomommimiojacehhhhhhhhhhhhhhhhhhhhhhhhhhhj",
"aa..........aaa.jjjdd..jjjjjjjjj.c#a.jjjjjjjjjjjjjjjjjjjjjjjjjj.",
"baaaacbbcccbss#bba#nnbcaaaccbbcacnq#bbbbbbbbbbbbcadcbcad..dacb##",
"eegghhffefgghhhhheb#baefggggefehhhhffefgghhhhhe#bbaefggggefeeeef",
"fehhihgfeehhigigfhjbbkefheefeeegighgfeehhigigfhabbkefheefeeeeeif",
"eehffhgffgffheihfijablfefhhfheieihhgffgffheihfijcblfefhhfheifeih",
"eehhihgffgffheihfijbclefhhhhefeiihhgffgffheihfijcblefhhhhefeeeef",
"eehhiigfefhhhhiiiijbclefhhhhefeehiigfefhhhhiiiijablefhhhhefeeeeh",
"feeefffffhfgmeeffijbclefheefhhiffiffffhfgmeeffijablefheefhhiifef",
"eefeeihffheghffmiijbblfefhhffhfihmihffheghffmiijablfefhhffhfifeh",
"eeeehhhefhegffffhijb#lefhhhhghefehhhefhegffffhijablefhhhhghefefh",
"hhhhhhhgiomommimiojbbehhhhhhhhhhhhhhgiomommimiojabghhhhhhhhhhhhg",
"jjjjjjjjjjjjjjjjjjjb#a.jjjjjjjjjjjjjjjjjjjjjjjjjaba..jjjjjjjjjjj",
"ababaaacccccbbaacccb###bbbb#bbb#bbaabbcaaaaacbcac#bbabbbbbcaabbb",
"################################################################"};
